# AST/ASF file generated using VICON BodyLanguage
# -----------------------------------------------
:version 1.10
:name VICON
:units
  mass 1.0
  length 0.45
  angle deg
:documentation
   .ast/.asf automatically generated from VICON data using
   VICON BodyBuilder and BodyLanguage model FoxedUp or BRILLIANT.MOD
:root
   order TX TY TZ RX RY RZ
   axis XYZ
   position 0 0 0  
   orientation 0 0 0 
:bonedata
  begin
     id 1 
     name lhipjoint
     direction 0.671379 -0.66392 0.329334 
     length 2.38647 
     axis 0 0 0  XYZ
  end
  begin
     id 2 
     name lfemur
     direction 0.34202 -0.939693 0  
     length 6.48179  
     axis 0 0 20  XYZ
    dof rx ry rz
    limits (-160.0 20.0)
           (-70.0 70.0)
           (-60.0 70.0)
  end
  begin
     id 3 
     name ltibia
     direction 0.34202 -0.939693 0   
     length 6.86524   
     axis 0 0 20   XYZ
    dof rx
    limits (-10.0 170.0)
  end
  begin
     id 4 
     name lfoot
     direction 0.204886 -0.562919 0.800715   
     length 1.73031   
     axis -90 7.62852e-016 20   XYZ
    dof rx rz
    limits (-45.0 90.0)
           (-70.0 20.0)
  end
  begin
     id 5 
     name ltoes
     direction 1.53548e-011 -4.21841e-011 1   
     length 0.828161   
     axis -90 7.62852e-016 20   XYZ
    dof rx
    limits (-90.0 20.0)
  end
  begin
     id 6 
     name rhipjoint
     direction -0.662732 -0.670855 0.332775   
     length 2.3618  
     axis 0 0 0  XYZ 
  end
  begin
     id 7 
     name rfemur
     direction -0.34202 -0.939693 0   
     length 6.3025   
     axis 0 0 -20   XYZ
    dof rx ry rz
    limits (-160.0 20.0)
           (-70.0 70.0)
           (-70.0 60.0)
  end
  begin
     id 8 
     name rtibia
     direction -0.34202 -0.939693 0   
     length 6.8732   
     axis 0 0 -20   XYZ
    dof rx
    limits (-10.0 170.0)
 end
 begin
     id 9 
     name rfoot
     direction -0.173856 -0.477665 0.861168   
     length 1.54784  
     axis -90 -7.62852e-016 -20   XYZ
    dof rx rz
    limits (-45.0 90.0)
           (-20.0 70.0)
  end
  begin
     id 10 
     name rtoes
     direction -1.53562e-011 -4.21802e-011 1   
     length 0.759618   
     axis -90 -7.62852e-016 -20   XYZ
    dof rx
    limits (-90.0 20.0)
  end
  begin
     id 11 
     name lowerback
     direction -0.0278357 0.999497 -0.0151789   
     length 1.97203   
     axis 0 0 0   XYZ
    dof rx ry rz
    limits (-20.0 45.0)
           (-30.0 30.0)
           (-30.0 30.0)
  end
  begin
     id 12 
     name upperback
     direction -0.00360622 0.997542 0.0699804   
     length 1.94709   
     axis 0 0 0   XYZ
    dof rx ry rz
    limits (-20.0 45.0)
           (-30.0 30.0)
           (-30.0 30.0)
  end
  begin
     id 13 
     name thorax
     direction 0.00907706 0.997048 0.0762461   
     length 1.95722   
     axis 0 0 0   XYZ
    dof rx ry rz
    limits (-20.0 45.0)
           (-30.0 30.0)
           (-30.0 30.0)
  end
  begin
     id 14 
     name lowerneck
     direction -0.0481835 0.99872 -0.0153927   
     length 1.63078   
     axis 0 0 0   XYZ
    dof rx ry rz
    limits (-20.0 45.0)
           (-30.0 30.0)
           (-30.0 30.0)
  end
  begin
     id 15 
     name upperneck
     direction 0.0859716 0.979226 -0.183644   
     length 1.62591   
     axis 0 0 0   XYZ
    dof rx ry rz
    limits (-20.0 45.0)
           (-30.0 30.0)
           (-30.0 30.0)
  end
  begin
     id 16
     name head
     direction 0.0324821 0.997629 -0.0606773  
     length 1.64811  
     axis 0 0 0   XYZ
    dof rx ry rz
    limits (-20.0 45.0)
           (-30.0 30.0)
           (-30.0 30.0)
  end
  begin
     id 17 
     name lclavicle
     direction 0.939609 0.311019 0.142835  
     length 3.70647  
     axis 0 0 0   XYZ
    dof ry rz
    limits (-20.0 10.0)
           (0.0 20.0)
  end
  begin
     id 18 
     name lhumerus
     direction 1 -4.48963e-011 -1.59838e-027   
     length 4.59207   
     axis 180 -30 -90   XYZ
    dof rx ry rz
    limits (-60.0 90.0)
           (-90.0 90.0)
           (-90.0 90.0)
  end
  begin
     id 19
     name lradius
     direction 1 -4.48957e-011 -1.3483e-026   
     length 2.98109   
     axis 180 -30 -90   XYZ
    dof rx
    limits (-10.0 170.0)
  end
  begin
     id 20
     name lwrist
     direction 1 -4.48954e-011 -3.11579e-026   
     length 1.49055   
     axis 2.00652e-014 90 90   XYZ
    dof ry
    limits (-180.0 0.0)
 end
  begin
     id 21 
     name lhand
     direction 1 -4.4911e-011 -6.23158e-026   
     length 0.480203   
     axis 3.97628e-014 90 90   XYZ
    dof rx rz
    limits (-90.0 90.0)
           (-45.0 45.0)
  end
  begin
     id 22 
     name lfingers
     direction 1 -4.48893e-011 -1.24632e-025   
     length 0.387152   
     axis 7.95256e-014 90 90   XYZ
    dof rx
    limits (0.0 90.0)
  end
  begin
     id 23
     name lthumb
     direction 0.707107 -6.35013e-011 0.707107   
     length 0.555875   
     axis -90 45 2.85299e-015   XYZ
    dof rx rz
    limits (-45.0 45.0)
           (-45.0 45.0)
  end
  begin
     id 24 
     name rclavicle
     direction -0.950396 0.30392 0.0661859   
     length 3.70894  
     axis 0 0 0   XYZ 
    dof ry rz
    limits (-10.0 20.0)
           (-20.0 0.0)
  end
  begin
     id 25 
     name rhumerus
     direction -1 -4.48957e-011 -2.96677e-027  
     length 4.76508   
     axis 180 30 90   XYZ
    dof rx ry rz
    limits (-90.0 60.0)
           (-90.0 90.0)
           (-90.0 90.0)
  end
  begin
     id 26 
     name rradius
     direction -1 -4.48974e-011 -1.44501e-026   
     length 2.78902   
     axis 180 30 90   XYZ
    dof rx
    limits (-10.0 170.0)
  end
  begin
     id 27 
     name rwrist
     direction -1 -4.48978e-011 -3.11579e-026   
     length 1.39451   
     axis 2.00652e-014 -90 -90   XYZ
    dof ry
    limits (-180.0 0.0)
  end
  begin
     id 28
     name rhand
     direction -1 -4.48956e-011 -6.23158e-026   
     length 0.721303   
     axis 3.97628e-014 -90 -90   XYZ
    dof rx rz
    limits (-90.0 90.0)
           (-45.0 45.0)
  end
  begin
     id 29
     name rfingers
     direction -1 -4.4899e-011 -1.24632e-025   
     length 0.581533   
     axis 7.95256e-014 -90 -90   XYZ
    dof rx
    limits (0.0 90.0)
  end
  begin
     id 30
     name rthumb
     direction -0.707107 -6.34911e-011 0.707107   
     length 0.834968   
     axis -90 -45 -2.85299e-015   XYZ
    dof rx rz
    limits (-45.0 45.0)
           (-45.0 45.0)
  end
:hierarchy
  begin
    root lhipjoint rhipjoint lowerback
    lhipjoint lfemur
    lfemur ltibia
    ltibia lfoot
    lfoot ltoes
    rhipjoint rfemur
    rfemur rtibia
    rtibia rfoot
    rfoot rtoes
    lowerback upperback
    upperback thorax
    thorax lowerneck lclavicle rclavicle
    lowerneck upperneck
    upperneck head
    lclavicle lhumerus
    lhumerus lradius
    lradius lwrist
    lwrist lhand lthumb
    lhand lfingers
    rclavicle rhumerus
    rhumerus rradius
    rradius rwrist
    rwrist rhand rthumb
    rhand rfingers
  end

#!OML:ASF I:\salsa\salsa 7_09\Patient 1\Session 1\dancerfemale.ASF
:FULLY-SPECIFIED
:DEGREES
67
root 24.1976 16.0204 1.41115 -1.84362 -74.8331 6.326
lowerback 0.189869 4.24943 -1.09767
upperback -5.30217 5.49491 -1.71953
thorax -5.52867 2.70362 -1.4395
lowerneck -1.94247 -3.35908 -12.3449
upperneck 6.34116 -5.10593 15.2875
head 2.88433 -2.43721 6.56838
rclavicle 7.95636e-014 7.55382e-015
rhumerus -43.9917 -29.1462 -77.2717
rradius 30.3996
rwrist 2.1335
rhand -3.83347 44.5516
rfingers 7.12502
rthumb 21.9139 15.7727
lclavicle 7.95636e-014 7.55382e-015
lhumerus -45.274 27.1132 75.9991
lradius 37.8214
lwrist -11.863
lhand -23.9202 36.1932
lfingers 7.12502
lthumb 2.55442 66.1577
rfemur -7.6206 -4.08681 17.5981
rtibia 20.128
rfoot -21.2703 -17.8827
rtoes -24.7594
lfemur -15.6397 -3.01548 -19.5445
ltibia 31.3468
lfoot -24.1061 -3.6315
ltoes 4.50733
68
root 24.1962 16.0219 1.41894 -2.07579 -75.2703 6.61949
lowerback 0.14464 4.18467 -1.13975
upperback -5.35896 5.40174 -1.76565
thorax -5.56345 2.65671 -1.45864
lowerneck -1.61343 -3.88091 -12.6842
upperneck 6.19464 -5.86612 15.7133
head 2.91737 -2.82831 6.73198
rclavicle -1.26725e-015 -9.93923e-015
rhumerus -43.7281 -29.0642 -77.5275
rradius 30.3602
rwrist 2.1932
rhand -3.89316 44.7738
rfingers 7.12502
rthumb 21.8566 15.9882
lclavicle -1.26725e-015 -9.93923e-015
lhumerus -45.3033 27.2314 75.9137
lradius 37.6742
lwrist -12.5085
lhand -23.9241 35.7488
lfingers 7.12502
lthumb 2.55069 65.7133
rfemur -7.77867 -3.9865 17.5205
rtibia 20.1824
rfoot -21.1714 -17.6207
rtoes -25.3614
lfemur -15.5958 -2.9666 -19.6212
ltibia 31.3329
lfoot -24.2115 -3.29045
ltoes 4.52302
69
root 24.1967 16.0234 1.4297 -1.98269 -75.6943 6.5855
lowerback 0.0236322 4.15575 -1.10848
upperback -5.35271 5.3655 -1.76304
thorax -5.48542 2.63761 -1.46081
lowerneck -1.40839 -4.38871 -12.9525
upperneck 6.09219 -6.5931 16.0158
head 2.97941 -3.19861 6.84131
rclavicle -1.44119e-015 -7.15625e-015
rhumerus -43.3063 -29.0047 -77.7266
rradius 30.2137
rwrist 2.19988
rhand -4.13384 45.0488
rfingers 7.12502
rthumb 21.6254 16.2364
lclavicle -1.44119e-015 -7.15625e-015
lhumerus -45.0396 26.867 76.5283
lradius 37.7731
lwrist -11.7527
lhand -24.8147 36.3473
lfingers 7.12502
lthumb 1.6905 66.3204
rfemur -7.96058 -3.92647 17.5239
rtibia 20.2356
rfoot -21.0385 -17.353
rtoes -25.7125
lfemur -15.5829 -2.98835 -19.6148
ltibia 31.3252
lfoot -24.3414 -2.91542
ltoes 4.53248
70
root 24.1964 16.0238 1.43802 -2.03646 -76.1154 6.61407
lowerback 0.00485123 4.11581 -1.09112
upperback -5.34092 5.3121 -1.77385
thorax -5.46019 2.60997 -1.47666
lowerneck -1.22668 -4.80548 -13.1108
upperneck 6.06213 -7.19617 16.1941
head 3.04329 -3.50629 6.89614
rclavicle -3.98563e-014 -1.07344e-014
rhumerus -42.9393 -28.9343 -77.9624
rradius 30.0993
rwrist 2.21379
rhand -4.51749 45.2382
rfingers 7.12502
rthumb 21.2569 16.3838
lclavicle -3.98563e-014 -1.07344e-014
lhumerus -45.0174 26.9148 76.5237
lradius 37.712
lwrist -12.1525
lhand -24.2165 35.8126
lfingers 7.12502
lthumb 2.26825 65.7803
rfemur -8.03123 -3.76947 17.5232
rtibia 20.2788
rfoot -20.9335 -17.1633
rtoes -25.6115
lfemur -15.4823 -2.92099 -19.6182
ltibia 31.3192
lfoot -24.4855 -2.60298
ltoes 4.6227
71
root 24.197 16.0241 1.44682 -2.05568 -76.5326 6.60278
lowerback 0.0456942 4.06555 -1.04494
upperback -5.36841 5.24338 -1.7858
thorax -5.50791 2.5725 -1.51585
lowerneck -1.04555 -5.12647 -13.2027
upperneck 6.08049 -7.67525 16.3491
head 3.10068 -3.75145 6.93825
rclavicle 4.44781e-014 1.70955e-014
rhumerus -42.7116 -28.9569 -78.1264
rradius 29.9632
rwrist 2.35699
rhand -4.65007 45.2197
rfingers 7.12502
rthumb 21.1296 16.351
lclavicle 4.44781e-014 1.70955e-014
lhumerus -45.1393 27.0395 76.3373
lradius 37.6624
lwrist -12.881
lhand -23.292 35.4857
lfingers 7.12502
lthumb 3.16109 65.442
rfemur -8.10181 -3.6096 17.5306
rtibia 20.332
rfoot -20.8947 -16.9758
rtoes -25.6516
lfemur -15.3902 -2.80838 -19.6158
ltibia 31.3074
lfoot -24.555 -2.31141
ltoes 4.8493
72
root 24.1985 16.0249 1.45513 -2.14927 -76.9583 6.7115
lowerback 0.0152974 4.01017 -1.0486
upperback -5.37269 5.16987 -1.76188
thorax -5.49855 2.53649 -1.48349
lowerneck -0.896262 -5.38196 -13.3052
upperneck 6.05668 -8.05245 16.4771
head 3.136 -3.94568 6.97807
rclavicle 4.29872e-014 1.43125e-014
rhumerus -42.4649 -29.0329 -78.1636
rradius 29.7464
rwrist 2.65173
rhand -4.51943 45.1897
rfingers 7.12502
rthumb 21.2551 16.3351
lclavicle 4.29872e-014 1.43125e-014
lhumerus -45.1949 27.2074 76.3309
lradius 37.6586
lwrist -13.312
lhand -22.8822 35.3545
lfingers 7.12502
lthumb 3.55686 65.3045
rfemur -8.24492 -3.46221 17.5073
rtibia 20.4117
rfoot -20.8592 -16.7613
rtoes -25.8562
lfemur -15.3375 -2.69028 -19.6369
ltibia 31.2831
lfoot -24.5814 -2.05027
ltoes 5.13275
73
root 24.1995 16.0251 1.46222 -2.56064 -77.3918 7.1161
lowerback -0.0160263 3.92367 -1.09501
upperback -5.33658 5.05409 -1.75158
thorax -5.44906 2.48162 -1.43752
lowerneck -0.897501 -5.59454 -13.3528
upperneck 6.14362 -8.35713 16.4783
head 3.2112 -4.09719 6.9668
rclavicle 5.55106e-014 6.75868e-015
rhumerus -42.1644 -29.0394 -78.2491
rradius 29.5222
rwrist 3.01969
rhand -4.60203 45.1847
rfingers 7.12502
rthumb 21.1757 16.3212
lclavicle 5.55106e-014 6.75868e-015
lhumerus -45.1406 27.2866 76.5235
lradius 37.7044
lwrist -12.9485
lhand -23.4812 35.5526
lfingers 7.12502
lthumb 2.97837 65.5115
rfemur -8.36627 -3.32768 17.4142
rtibia 20.5099
rfoot -20.7382 -16.5039
rtoes -26.1203
lfemur -15.2273 -2.59927 -19.7243
ltibia 31.2541
lfoot -24.7018 -1.77724
ltoes 5.45851
74
root 24.2005 16.0234 1.47041 -2.89237 -77.7627 7.39146
lowerback 0.0793973 3.83961 -1.09047
upperback -5.34388 4.9387 -1.76426
thorax -5.51102 2.42298 -1.45538
lowerneck -0.865508 -5.77517 -13.3605
upperneck 6.29655 -8.63466 16.503
head 3.29501 -4.23516 6.95861
rclavicle -7.38485e-014 -1.82882e-014
rhumerus -42.0045 -29.0448 -78.3713
rradius 29.3685
rwrist 3.21751
rhand -5.01876 45.0079
rfingers 7.12502
rthumb 20.7754 16.1001
lclavicle -7.38485e-014 -1.82882e-014
lhumerus -45.1866 27.241 76.6427
lradius 37.7809
lwrist -12.9151
lhand -23.6238 35.6207
lfingers 7.12502
lthumb 2.84072 65.5815
rfemur -8.42113 -3.28147 17.3453
rtibia 20.6164
rfoot -20.7082 -16.2391
rtoes -26.4186
lfemur -15.0767 -2.55563 -19.7923
ltibia 31.2364
lfoot -24.8571 -1.505
ltoes 5.62423
75
root 24.2022 16.0215 1.47824 -3.33607 -78.1173 7.73077
lowerback 0.267205 3.8042 -1.10626
upperback -5.35734 4.88508 -1.80056
thorax -5.63142 2.39498 -1.49655
lowerneck -0.766705 -5.93116 -13.3831
upperneck 6.40148 -8.89432 16.6677
head 3.3576 -4.36565 7.00163
rclavicle 1.73937e-014 -1.39149e-014
rhumerus -41.9702 -29.2509 -78.4207
rradius 29.2742
rwrist 3.39309
rhand -5.19659 44.8282
rfingers 7.12502
rthumb 20.6045 15.9018
lclavicle 1.73937e-014 -1.39149e-014
lhumerus -45.2764 27.1529 76.6468
lradius 37.8237
lwrist -13.6252
lhand -23.0307 35.7238
lfingers 7.12502
lthumb 3.41348 65.6762
rfemur -8.40219 -3.19515 17.2672
rtibia 20.6937
rfoot -20.8129 -16.0312
rtoes -26.5229
lfemur -14.8987 -2.429 -19.8704
ltibia 31.2484
lfoot -24.9303 -1.31045
ltoes 5.55763
76
root 24.2034 16.0201 1.48454 -3.75805 -78.6005 8.07026
lowerback 0.348587 3.80155 -1.15912
upperback -5.30868 4.88004 -1.79815
thorax -5.63139 2.39529 -1.46845
lowerneck -0.788589 -6.06175 -13.3142
upperneck 6.48429 -9.09097 16.6939
head 3.4145 -4.45984 6.98401
rclavicle -2.16178e-014 8.34896e-015
rhumerus -41.859 -29.5248 -78.4442
rradius 29.2002
rwrist 3.6643
rhand -5.03824 44.7275
rfingers 7.12502
rthumb 20.7567 15.8177
lclavicle -2.16178e-014 8.34896e-015
lhumerus -45.2452 27.1248 76.7366
lradius 37.8495
lwrist -13.8183
lhand -22.8144 35.9648
lfingers 7.12502
lthumb 3.62229 65.9137
rfemur -8.42094 -2.94963 17.2191
rtibia 20.7354
rfoot -20.8253 -15.831
rtoes -26.4523
lfemur -14.7415 -2.12243 -19.9161
ltibia 31.2842
lfoot -24.999 -1.16839
ltoes 5.58949
77
root 24.2033 16.0195 1.4916 -3.43202 -79.1003 7.72625
lowerback 0.340221 3.79505 -1.09865
upperback -5.2763 4.87844 -1.72853
thorax -5.59316 2.39416 -1.42755
lowerneck -0.783427 -6.14097 -13.2699
upperneck 6.46749 -9.20053 16.6789
head 3.42324 -4.51423 6.96402
rclavicle -2.1916e-014 1.23246e-014
rhumerus -41.7362 -29.6664 -78.4614
rradius 29.1109
rwrist 3.75444
rhand -4.86572 44.5791
rfingers 7.12502
rthumb 20.9224 15.6874
lclavicle -2.1916e-014 1.23246e-014
lhumerus -45.2232 27.0531 76.951
lradius 37.8541
lwrist -13.5004
lhand -23.3835 35.9137
lfingers 7.12502
lthumb 3.07272 65.8713
rfemur -8.51776 -2.72933 17.321
rtibia 20.7667
rfoot -20.736 -15.6099
rtoes -26.5056
lfemur -14.6679 -1.83649 -19.8117
ltibia 31.328
lfoot -25.1542 -1.02187
ltoes 5.7696
78
root 24.2014 16.0188 1.50025 -3.24101 -79.454 7.55699
lowerback 0.301828 3.78687 -1.05553
upperback -5.27412 4.8711 -1.69507
thorax -5.56814 2.38951 -1.41335
lowerneck -0.691888 -6.19479 -13.2938
upperneck 6.38752 -9.28493 16.7704
head 3.4029 -4.56037 6.99508
rclavicle -6.42571e-014 1.59028e-015
rhumerus -41.7415 -29.8287 -78.4127
rradius 29.0904
rwrist 3.72737
rhand -4.64631 44.4649
rfingers 7.12502
rthumb 21.1332 15.5967
lclavicle -6.42571e-014 1.59028e-015
lhumerus -45.2061 26.8326 77.2371
lradius 37.8081
lwrist -13.4376
lhand -24.0854 35.8921
lfingers 7.12502
lthumb 2.39486 65.8584
rfemur -8.60338 -2.68184 17.3595
rtibia 20.7769
rfoot -20.7263 -15.3706
rtoes -26.628
lfemur -14.6473 -1.71902 -19.7733
ltibia 31.3787
lfoot -25.3017 -0.847947
ltoes 5.82848
79
root 24.1983 16.0178 1.50795 -3.66118 -79.7619 8.00363
lowerback 0.235681 3.76601 -1.11076
upperback -5.25952 4.84227 -1.69223
thorax -5.52028 2.37794 -1.37284
lowerneck -0.667216 -6.22257 -13.3526
upperneck 6.41371 -9.33648 16.8444
head 3.42069 -4.58703 7.02633
rclavicle -9.54166e-015 -1.03368e-014
rhumerus -41.8443 -30.0324 -78.3249
rradius 29.1709
rwrist 3.72337
rhand -4.36134 44.281
rfingers 7.12502
rthumb 21.4069 15.4436
lclavicle -9.54166e-015 -1.03368e-014
lhumerus -45.19 26.701 77.404
lradius 37.8046
lwrist -13.2789
lhand -23.5021 35.6953
lfingers 7.12502
lthumb 2.95817 65.6545
rfemur -8.66869 -2.6806 17.2748
rtibia 20.7816
rfoot -20.7725 -15.1156
rtoes -26.585
lfemur -14.6241 -1.56097 -19.8552
ltibia 31.4267
lfoot -25.3566 -0.724754
ltoes 5.89472
